<svg width="78" height="73" viewBox="0 0 78 73" fill="none" xmlns="http://www.w3.org/2000/svg">
<path d="M75.8646 50.6589C74.4388 49.9519 72.5638 49.9441 70.1966 50.5769C64.8997 51.9597 62.5677 54.0613 61.9388 54.7761C58.3841 56.0105 54.724 57.0925 50.9698 58.0027C52.2159 57.2605 53.4034 56.4129 54.5323 55.448C59.4268 51.2566 62.4971 45.421 63.1768 39.01C63.7549 33.5647 62.5791 28.205 59.7862 23.518C59.7081 23.3852 59.6299 23.2523 59.5518 23.1352C58.4268 21.3227 57.0752 19.6664 55.544 18.2055C56.0948 17.9242 56.5089 17.6351 56.7862 17.4047C62.7354 19.2133 68.5482 21.5414 74.1532 24.3852C74.579 24.6 75.0907 24.4399 75.2977 24.0297C75.5087 23.6156 75.3329 23.0961 74.8954 22.8813C69.0438 19.9399 62.9774 17.5532 56.7704 15.7211C56.7665 15.7211 56.7665 15.7211 56.7665 15.7172C56.4462 15.6234 56.0985 15.7172 55.8798 15.9477C55.8212 16.018 55.3016 16.5492 54.2078 17.018C52.9187 17.5687 50.829 18.0297 47.7587 17.5336C47.4422 17.4828 47.1102 17.4164 46.7665 17.3461C46.7001 17.3305 46.6337 17.3148 46.5672 17.3031C41.5125 16.225 38.2742 14.3773 38.2313 14.35C38.0634 14.2485 37.8602 14.2055 37.661 14.2289C37.6415 14.2328 37.2001 14.2797 36.5008 14.2992C35.6844 14.3149 34.5203 14.2992 33.2742 14.1274C31.9422 13.9399 30.5125 13.5805 29.282 12.8618C28.9227 12.6547 28.575 12.4165 28.2586 12.1391C28.1375 12.0336 28.0204 11.9321 27.9071 11.8266C27.3602 11.3149 27.2196 10.6391 27.5594 10.0063C27.825 9.5063 28.4735 8.9868 29.4578 9.04536L29.5008 9.04927C32.9539 9.26021 36.3797 8.97895 39.8678 8.17427C40.3443 8.06489 40.6217 7.64302 40.4889 7.23286C40.3834 6.91645 40.0709 6.70161 39.7193 6.66255C39.6061 6.64692 39.4889 6.65473 39.3717 6.67817C36.0983 7.4477 32.8678 7.72507 29.6334 7.53755C29.6178 7.53755 29.6021 7.53755 29.5865 7.53364C28.024 7.4438 26.5904 8.1899 25.9693 9.38525C25.3404 10.5922 25.6412 11.9125 26.6841 12.8618C26.7349 12.9048 26.7818 12.9517 26.8326 12.9947C26.8365 12.9986 26.8365 12.9986 26.8365 12.9986C22.8287 13.9712 18.9263 15.1353 15.1455 16.4791C14.9892 16.5338 14.8525 16.6353 14.7588 16.7603C14.7353 16.8189 12.8291 19.1236 7.25877 20.5923C5.37597 21.104 3.89157 21.1392 2.90327 20.6548C2.25093 20.3345 1.93061 19.8423 1.78217 19.5103C10.8838 12.4986 21.6342 6.29931 33.9232 1.59631C39.9857 1.401 46.1032 1.651 52.2202 2.35803C60.3647 3.36193 68.4972 5.17443 76.4932 7.83463C77.0088 8.00651 77.5401 7.79557 77.6885 7.35807C77.8291 6.94791 77.5596 6.47916 77.0908 6.28777C77.0635 6.27605 77.0361 6.26824 77.0088 6.25652C68.8994 3.59242 60.6498 1.77602 52.3958 0.787722C46.1302 0.0846016 39.8648 -0.141969 33.6578 0.0846014C33.5289 0.0885074 33.4039 0.115852 33.2867 0.158821C20.6267 5.04162 9.59569 11.4948 0.290689 18.7998C0.0719386 18.9717 -0.0335314 19.2217 0.00943858 19.46C0.0172516 19.5303 0.345378 21.0498 2.02114 21.878C3.44694 22.585 5.32194 22.5928 7.68914 21.96C12.986 20.5772 15.318 18.4756 15.9469 17.7608C18.8492 16.753 21.8258 15.8467 24.8649 15.0538C24.2673 15.4288 23.6852 15.8273 23.1188 16.253C22.9899 16.3468 22.8649 16.4444 22.7438 16.5382C20.6227 18.1905 18.7868 20.1554 17.2907 22.3898C15.0368 25.7531 13.6227 29.671 13.193 33.7178C12.6462 38.874 13.6813 43.9908 16.1852 48.5148C17.5407 50.964 19.2672 53.1398 21.3024 54.9875C21.2321 55.0383 21.1696 55.089 21.111 55.1359C15.1618 53.3273 9.34903 50.9992 3.74403 48.1554C3.31825 47.9406 2.81044 48.0968 2.59953 48.5109C2.38859 48.9249 2.56437 49.4445 3.00187 49.6593C8.85347 52.6007 14.9199 54.9874 21.1269 56.8195L21.1308 56.8234C21.4511 56.9171 21.7987 56.8234 22.0175 56.5929C22.0487 56.55 22.2441 56.3507 22.6191 56.0968H22.623C23.0097 55.8351 23.5878 55.5187 24.3886 55.2648C25.0018 55.0656 25.7441 54.9054 26.6269 54.8351C27.8496 54.7375 29.3417 54.8117 31.1347 55.1945C31.2011 55.2101 31.2675 55.2257 31.3339 55.2375C32.8378 55.5578 34.1777 55.9445 35.3183 56.3352C38.0292 57.2531 39.6386 58.1711 39.6699 58.1946C39.8378 58.2961 40.041 58.3391 40.2402 58.3156C40.2753 58.3117 42.3183 58.0969 44.623 58.4211C44.9433 58.4641 45.2675 58.5188 45.5956 58.5891H45.5996C46.4746 58.7688 47.3574 59.0383 48.1777 59.4485C48.7011 59.7102 49.1972 60.0266 49.6465 60.4133C49.7675 60.5188 49.8847 60.6203 49.998 60.7258C50.5449 61.2375 50.6855 61.9133 50.3457 62.5461C50.0801 63.0461 49.4316 63.5656 48.4473 63.507L48.4043 63.5031C44.9512 63.2922 41.5254 63.5734 38.0373 64.3781C37.5607 64.4875 37.2834 64.9094 37.4162 65.3234C37.5217 65.6359 37.8303 65.8547 38.1857 65.8899C38.299 65.9055 38.4162 65.8977 38.5334 65.8742C41.8068 65.1047 45.0373 64.8273 48.2717 65.0149C48.2873 65.0149 48.303 65.0149 48.3186 65.0188C49.8811 65.1086 51.3147 64.3625 51.9358 63.1672C52.5647 61.9602 52.2639 60.6399 51.2248 59.6906C51.1741 59.6476 51.1272 59.6007 51.0725 59.5578V59.5538C55.0803 58.5812 58.9787 57.4171 62.7605 56.0733C62.9207 56.0187 63.0574 55.9171 63.1511 55.7921C63.1746 55.7335 65.0808 53.4288 70.6511 51.9601C72.53 51.4484 74.0183 51.4132 75.0066 51.8976C75.659 52.2218 75.9793 52.7101 76.1277 53.0421C67.03 60.0577 56.2797 66.2531 43.9907 70.9561C37.9282 71.1514 31.8107 70.9014 25.6937 70.1944C17.5492 69.1905 9.41672 67.378 1.42072 64.7178C0.905105 64.5459 0.369925 64.7568 0.225425 65.1943C0.0848048 65.6045 0.350425 66.0732 0.823085 66.2646C0.850429 66.2764 0.877772 66.2842 0.905116 66.2959C9.01452 68.96 17.2641 70.7764 25.5181 71.7647C31.7837 72.4678 38.0491 72.6944 44.2561 72.4678C44.385 72.4639 44.51 72.4366 44.6272 72.3936C57.2722 67.503 68.3072 61.0496 77.6072 53.7456C77.826 53.5737 77.9314 53.3237 77.8885 53.0854C77.8611 53.0073 77.5364 51.487 75.8646 50.6589ZM43.2706 41.0495V48.7604H34.6183V41.0495H26.9074V32.3972H34.6183V24.6863H43.2706V32.3972H50.9815V41.0495H43.2706Z" fill="#4D38F5"/>
</svg>
